**ABCDEFGHIJKLMNOPQRSTUVWXYZabcdefghijklmnopqrstuvwxyz**************************
**PARASOLID !"#$%&'()*+,-./:;<=>?@[\]^_`{|}~0123456789**************************
**PART1;
MC=AMD64;
MC_MODEL=Intel64 Family 6 Model 78 Stepping 3, GenuineIntel;
MC_ID=unknown;
OS=Windows_NT;
OS_RELEASE=unknown;
FRU=Parasolid Version 28.0, build 191,  8-24-2015;
APPL=SOLIDWORKS 2016-2015334;
SITE=;
USER=unknown;
FORMAT=text;
GUISE=transmit;
KEY=Lake-Y;
FILE=Lake-Y.x_t;
DATE=Thu Jan 11 21:46:55 2018;
**PART2;
SCH=SCH_2800191_28002;
USFLD_SIZE=0;
**PART3;
**END_OF_HEADER*****************************************************************
T51 : TRANSMIT FILE created by modeller version 280019123 SCH_2800191_28002_1300
6200 0 12 30 CCCCCCCCCCCCCDI5 owner1040 0 CCCCCCCCCA13 boundary_mesh1006 0 A16 i
ndex_map_offset0 0 1 dA9 index_map82 0 A17 node_id_index_map82 0 A20 schema_embe
dding_map82 0 A5 child12 0 A14 lowest_node_id0 0 1 dZ1 389 0 2 0 0 0 0 1e3 1e-8
 0 3 0 1 0 1 1 4 5 6 7 8 9 10 0 0 0 0 0 0 0 70 11 CI9 list_type0 0 1 uI10 notran
smit0 0 1 lCCCDCCDI12 finger_index0 0 1 dI12 finger_block1012 0 CZ2 0 4 T1 0 0 2
 20 1 11 11 13 255 4 254 0 1 0 12 0 0 13 0 50 255 5 241 0 12 14 0 0 +-.577158016
036993 .05 -.569147882231405 1 0 -1057355261547768e-31 -1057355261547768e-31 0 -
1 30 255 6 253 0 9 15 0 0 +-.577158016036993 .05 .480852117768595 0 -1 0 29 255
 7 182 0 16 17 0 -.577158016036993 0 -.569147882231405 19 8 CCCCCCCA5 owner12 0
 Z8 76 0 1 13 0 18 V0 16 255 9 205 0 ?19 0 20 6 0 0 1 18 255 10 73 0 21 0 22 23
 ?1 17 255 21 0 24 25 26 10 27 28 0 29 +18 22 70 0 26 10 30 31 ?1 29 23 75 0 10
 31 32 -.577158016036993 .05 -.569147882231405 29 31 72 0 22 33 23 .372841983963
007 .05 -.569147882231405 29 32 193 0 34 23 35 -.577158016036993 0 .480852117768
595 18 34 168 0 36 37 0 32 ?1 29 35 192 0 37 32 38 -.777158016036993 0 .48085211
7768595 18 37 167 0 39 40 34 35 ?1 29 38 191 0 40 35 41 -.777158016036993 0 1.08
0852117768594 18 40 166 0 42 43 37 38 ?1 29 41 190 0 43 38 44 -.577158016036993
 0 1.080852117768594 18 43 165 0 45 46 40 41 ?1 29 44 189 0 46 41 47 -.577158016
036993 0 .780852117768595 18 46 164 0 48 49 43 44 ?1 29 47 188 0 49 44 50 .37284
1983963007 0 .780852117768595 18 49 163 0 51 52 46 47 ?1 29 50 187 0 52 47 53 .3
728419839630075 0 1.080852117768594 18 52 162 0 54 55 49 50 ?1 29 53 186 0 55 50
 56 .572841983963008 0 1.080852117768594 18 55 161 0 57 58 52 53 ?1 29 56 185 0
 58 53 59 .572841983963008 0 .480852117768595 18 58 160 0 60 61 55 56 ?1 29 59 1
84 0 61 56 17 .3728419839630075 0 .480852117768595 18 61 159 0 62 63 58 59 ?1 29
 17 183 0 63 59 7 .372841983963007 0 -.569147882231405 18 63 158 0 64 16 61 17 ?
1 17 64 0 65 66 67 63 68 69 0 70 +18 16 157 0 71 72 63 7 ?1 17 71 0 73 29 70 16
 74 75 0 76 +18 72 40 0 77 78 16 79 ?1 17 77 0 80 19 81 72 82 83 0 25 -18 78 43
 0 82 84 72 85 ?1 29 79 42 0 72 0 85 -.577158016036993 .05 .480852117768595 29 8
5 45 0 78 79 86 -.777158016036993 .05 .480852117768595 29 86 48 0 84 85 87 -.777
158016036993 .05 1.080852117768594 18 84 46 0 88 89 78 86 ?1 29 87 51 0 89 86 90
 -.577158016036993 .05 1.080852117768594 18 89 49 0 91 92 84 87 ?1 29 90 54 0 92
 87 93 -.577158016036993 .05 .780852117768595 18 92 52 0 94 95 89 90 ?1 29 93 57
 0 95 90 96 .372841983963007 .05 .780852117768595 18 95 55 0 97 98 92 93 ?1 29 9
6 60 0 98 93 99 .3728419839630075 .05 1.080852117768594 18 98 58 0 100 101 95 96
 ?1 29 99 63 0 101 96 102 .572841983963008 .05 1.080852117768594 18 101 61 0 103
 104 98 99 ?1 29 102 66 0 104 99 33 .572841983963008 .05 .480852117768595 18 104
 64 0 105 30 101 102 ?1 29 33 69 0 30 102 31 .3728419839630075 .05 .480852117768
595 18 30 67 0 106 22 104 33 ?1 17 106 0 24 26 105 30 107 108 0 109 +15 255 24 3
 0 25 110 0 17 26 0 24 21 106 22 111 112 0 66 +17 105 0 24 106 103 104 113 114 0
 115 +17 107 0 116 117 109 104 106 108 0 0 -16 108 31 0 ?106 112 114 118 0 0 1 1
7 109 0 116 107 62 30 67 119 0 111 -15 116 210 0 62 120 0 17 62 0 116 109 117 61
 121 122 0 67 +17 67 0 65 64 111 61 109 119 0 68 +16 119 196 0 ?67 123 124 125 0
 0 1 17 111 0 65 67 66 30 26 112 0 0 -15 65 208 0 64 126 0 17 66 0 65 111 64 22
 70 124 0 27 -16 112 34 0 ?26 28 108 127 0 0 1 16 28 37 0 ?21 128 112 129 0 0 1
 30 127 35 0 112 118 129 0 +.372841983963007 .05 -.569147882231405 -370074341541
719e-30 0 -1 30 118 32 0 108 130 127 0 +.3728419839630075 .05 .480852117768595 -
1 0 277555756156289e-30 30 129 38 0 28 127 131 0 +-.577158016036993 .05 -.569147
882231405 -1 0 0 30 131 181 0 132 129 133 0 +-.577158016036993 0 -.5691478822314
05 1057355261547768e-31 0 1 16 132 153 0 ?134 135 0 131 0 0 1 30 133 180 0 135 1
31 136 0 +-.577158016036993 0 .480852117768595 -1 0 0 16 135 149 0 ?39 137 132 1
33 0 0 1 30 136 179 0 137 133 138 0 +-.777158016036993 0 .480852117768595 0 0 1
 16 137 145 0 ?42 139 135 136 0 0 1 30 138 178 0 139 136 140 0 +-.57715801603699
3 0 1.080852117768594 1 0 0 16 139 141 0 ?45 141 137 138 0 0 1 30 140 177 0 141
 138 142 0 +-.577158016036993 0 .780852117768595 -740148683083438e-30 0 -1 16 14
1 137 0 ?48 143 139 140 0 0 1 30 142 176 0 143 140 144 0 +-.577158016036993 0 .7
80852117768595 1 0 0 16 143 133 0 ?51 145 141 142 0 0 1 30 144 175 0 145 142 146
 0 +.372841983963007 0 .780852117768595 740148683083438e-30 0 1 16 145 129 0 ?54
 147 143 144 0 0 1 30 146 174 0 147 144 148 0 +.3728419839630075 0 1.08085211776
8594 1 0 1110223024625154e-30 16 147 125 0 ?57 149 145 146 0 0 1 30 148 173 0 14
9 146 150 0 +.572841983963008 0 .480852117768595 -370074341541719e-30 0 -1 16 14
9 121 0 ?60 122 147 148 0 0 1 30 150 172 0 122 148 151 0 +.3728419839630075 0 .4
80852117768595 -1 0 277555756156289e-30 16 122 117 0 ?62 69 149 150 0 0 1 30 151
 171 0 69 150 152 0 +.372841983963007 0 -.569147882231405 -370074341541719e-30 0
 -1 16 69 113 0 ?64 75 122 151 0 0 1 30 152 170 0 75 151 153 0 +-.57715801603699
3 0 -.569147882231405 -1 0 0 16 75 109 0 ?71 154 69 152 0 0 1 30 153 242 0 128 1
52 155 0 +-.577158016036993 .05 -.569147882231405 0 -1 0 16 128 194 0 ?76 124 28
 153 0 0 1 30 155 243 0 124 153 125 0 +.372841983963007 .05 -.569147882231405 0
 -1 0 16 124 195 0 ?70 119 128 155 0 0 1 30 125 244 0 119 155 156 0 +.3728419839
630075 .05 .480852117768595 0 -1 0 30 156 245 0 123 125 157 0 +.572841983963008
 .05 .480852117768595 0 -1 0 16 123 197 0 ?117 158 119 156 0 0 1 30 157 246 0 15
8 156 159 0 +.572841983963008 .05 1.080852117768594 0 -1 0 16 158 198 0 ?160 161
 123 157 0 0 1 30 159 247 0 161 157 162 0 +.3728419839630075 .05 1.0808521177685
94 0 -1 0 16 161 199 0 ?163 164 158 159 0 0 1 30 162 248 0 164 159 165 0 +.37284
1983963007 .05 .780852117768595 0 -1 0 16 164 200 0 ?166 167 161 162 0 0 1 30 16
5 249 0 167 162 168 0 +-.577158016036993 .05 .780852117768595 0 -1 0 16 167 201
 0 ?169 170 164 165 0 0 1 30 168 250 0 170 165 171 0 +-.577158016036993 .05 1.08
0852117768594 0 -1 0 16 170 202 0 ?172 173 167 168 0 0 1 30 171 251 0 173 168 15
 0 +-.777158016036993 .05 1.080852117768594 0 -1 0 16 173 203 0 ?174 20 170 171
 0 0 1 30 15 252 0 20 171 6 0 +-.777158016036993 .05 .480852117768595 0 -1 0 16
 20 204 0 ?175 9 173 15 0 0 1 17 175 0 176 42 177 37 81 20 0 178 +15 176 224 0 4
2 179 0 17 42 0 176 180 175 40 178 137 0 174 +17 177 0 176 175 180 78 88 181 0 0
 -17 81 0 80 77 39 78 175 20 0 177 -17 178 0 182 36 183 37 42 137 0 0 -15 182 10
8 0 184 185 0 17 36 0 182 184 178 34 39 135 0 19 -17 183 0 182 178 186 40 45 139
 0 0 -17 186 0 182 183 187 43 48 141 0 0 -17 45 0 188 189 174 43 183 139 0 172 +
15 188 222 0 45 190 0 17 189 0 188 191 45 89 172 170 0 192 -17 174 0 188 45 191
 40 180 173 0 183 +17 172 0 193 48 192 43 189 170 0 186 +15 193 220 0 48 194 0 1
7 48 0 193 195 172 46 186 141 0 169 +17 192 0 193 172 195 89 94 196 0 0 -17 195
 0 193 192 48 92 169 167 0 197 -17 94 0 24 97 91 92 192 196 0 195 +16 196 16 0 ?
94 198 199 200 0 0 1 16 198 19 0 ?97 201 196 202 0 0 1 16 199 13 0 ?91 196 181 2
03 0 0 1 30 200 17 0 196 203 202 0 +-.577158016036993 .05 .780852117768595 -7401
48683083438e-30 0 -1 30 203 14 0 199 204 200 0 +-.577158016036993 .05 1.08085211
7768594 1 0 0 30 202 20 0 198 200 205 0 +-.577158016036993 .05 .780852117768595
 1 0 0 30 205 23 0 201 202 206 0 +.372841983963007 .05 .780852117768595 74014868
3083438e-30 0 1 16 201 22 0 ?100 207 198 205 0 0 1 30 206 26 0 207 205 130 0 +.3
728419839630075 .05 1.080852117768594 1 0 1110223024625154e-30 16 207 25 0 ?103
 114 201 206 0 0 1 30 130 29 0 114 206 118 0 +.572841983963008 .05 .480852117768
595 -370074341541719e-30 0 -1 16 114 28 0 ?105 108 207 130 0 0 1 17 103 0 24 105
 100 101 208 207 0 209 +17 100 0 24 103 97 98 210 201 0 211 +17 208 0 212 163 20
9 98 103 207 0 0 -17 209 0 212 208 57 101 160 158 0 113 -15 212 214 0 57 213 0 1
7 57 0 212 209 163 55 214 147 0 160 +17 160 0 215 60 113 55 209 158 0 216 +17 11
3 0 215 160 115 101 105 114 0 0 -15 215 212 0 60 217 0 17 115 0 215 113 60 104 1
17 123 0 107 -17 60 0 215 115 160 58 216 149 0 117 +17 117 0 116 62 107 58 115 1
23 0 121 +17 121 0 182 216 68 58 62 122 0 0 -17 216 0 182 214 121 55 60 149 0 0
 -17 68 0 182 121 74 61 64 69 0 0 -17 74 0 182 68 184 63 71 75 0 0 -17 184 0 182
 74 36 16 134 132 0 0 -17 134 0 218 219 76 34 184 132 0 0 +15 218 228 0 134 12 0
 17 219 0 218 220 134 72 19 9 0 0 -17 76 0 218 134 220 16 29 128 0 184 +17 220 0
 218 76 219 10 25 154 0 0 -17 29 0 73 27 71 10 76 128 0 220 -15 73 206 0 71 221
 0 17 27 0 73 70 29 22 21 28 0 0 -17 70 0 73 71 27 63 66 124 0 74 +14 255 221 20
7 222 ?110 126 73 4 223 -0 0 110 126 18 81 255 1 222 376 224 221 225 0 0 226 227
 14 110 1 226 ?185 221 24 4 228 -0 0 185 221 18 14 126 209 229 ?221 120 65 4 230
 -0 0 221 120 18 50 223 230 0 221 231 230 0 +-.577158016036993 .05 -.56914788223
1405 0 0 1 1 0 0 13 18 77 0 0 0 0 0 0 8 12 14 12 229 232 ?233 0 218 4 5 -0 0 233
 0 18 81 1 232 379 224 12 234 0 229 235 236 14 233 227 235 ?179 12 80 4 14 -0 0
 179 12 18 81 1 235 380 224 233 237 0 232 238 239 14 179 225 238 ?190 233 176 4
 240 -0 0 190 233 18 15 80 226 0 39 233 0 50 14 240 0 233 240 5 0 +-.57715801603
6993 .05 .480852117768595 0 0 1 1 0 0 50 240 239 0 179 241 14 0 +-.7771580160369
93 .05 .480852117768595 1 0 0 0 0 -1 50 241 238 0 190 242 240 0 +-.5771580160369
93 .05 1.080852117768594 0 0 -1 -1 0 0 14 190 223 243 ?194 179 188 4 241 -0 0 19
4 179 18 50 242 237 0 194 244 241 0 +-.577158016036993 .05 .780852117768595 -1 0
 740148683083438e-30 740148683083438e-30 0 1 14 194 221 245 ?246 190 193 4 242 -
0 0 246 190 18 50 244 236 0 246 247 242 0 +-.577158016036993 .05 .78085211776859
5 0 0 -1 -1 0 0 14 246 219 248 ?249 194 250 4 244 -0 0 249 194 18 50 247 235 0 2
49 251 244 0 +.372841983963007 .05 .780852117768595 1 0 -740148683083438e-30 -74
0148683083438e-30 0 -1 14 249 217 252 ?213 246 253 4 247 -0 0 213 246 18 50 251
 234 0 213 254 247 0 +.3728419839630075 .05 1.080852117768594 1110223024625154e-
30 0 -1 -1 0 -1110223024625154e-30 14 213 215 255 ?217 249 212 4 251 -0 0 217 24
9 18 50 254 233 0 217 256 251 0 +.572841983963008 .05 .480852117768595 -1 0 3700
74341541719e-30 370074341541719e-30 0 1 14 217 213 257 ?120 213 215 4 254 -0 0 1
20 213 18 50 256 232 0 120 230 254 0 +.3728419839630075 .05 .480852117768595 277
555756156289e-30 0 1 1 0 -277555756156289e-30 14 120 211 258 ?126 217 116 4 256
 -0 0 126 217 18 50 230 231 0 126 223 256 0 +.372841983963007 .05 -.569147882231
405 -1 0 370074341541719e-30 370074341541719e-30 0 1 81 1 258 388 224 120 259 0
 257 260 261 80 255 1 224 262 263 9000 1 1 1 1 1 1 1 1 0 FFFFTFTFFFFFFF1 81 1 25
9 341 264 120 0 258 265 266 267 81 1 257 387 224 217 265 0 255 258 268 81 1 260
 389 224 185 269 0 258 0 270 82 255 1 261 1166278766 14 185 107 260 ?0 110 182 4
 231 +0 0 0 110 18 81 1 269 345 264 185 0 260 271 0 272 82 1 270 1163264110 80 1
 264 0 273 8001 0 0 0 0 3 5 0 0 0 FFFFTFTFFFFFFF2 81 1 271 344 264 110 0 226 225
 269 274 83 255 3 272 .792156862745098 .819607843137255 .933333333333333 81 1 22
6 377 224 110 271 0 222 229 275 81 1 225 343 264 221 0 222 266 271 276 83 3 274
 .792156862745098 .819607843137255 .933333333333333 81 1 266 342 264 126 0 229 2
59 225 277 83 3 276 .792156862745098 .819607843137255 .933333333333333 81 1 229
 378 224 126 266 0 226 232 278 83 3 277 .792156862745098 .819607843137255 .93333
3333333333 82 1 278 1166016622 82 1 275 1148190830 79 255 15 273 SDL/TYSA_COLOUR
50 231 169 0 185 228 223 0 +0 0 0 0 -1 0 0 0 -1 50 228 2 0 110 0 231 0 +0 .05 0
 0 -1 0 0 0 -1 81 1 265 340 264 217 0 257 279 259 280 81 1 255 386 224 213 279 0
 252 257 281 82 1 268 1166540910 81 1 279 339 264 213 0 255 282 265 283 81 1 252
 385 224 249 282 0 248 255 284 82 1 281 1166803054 81 1 282 338 264 249 0 252 28
5 279 286 81 1 248 384 224 246 285 0 245 252 287 82 1 284 1167065198 81 1 285 33
7 264 246 0 248 288 282 289 81 1 245 383 224 194 288 0 243 248 290 82 1 287 1167
327342 81 1 288 336 264 194 0 245 291 285 292 81 1 243 382 224 190 291 0 238 245
 293 82 1 290 1167589486 81 1 291 335 264 190 0 243 294 288 295 81 1 238 381 224
 179 294 0 235 243 296 82 1 293 1167851630 81 1 294 334 264 179 0 238 237 291 29
7 82 1 296 1168113774 81 1 237 333 264 233 0 235 234 294 298 83 3 297 .792156862
745098 .819607843137255 .933333333333333 81 1 234 332 264 12 0 232 0 237 299 83
 3 298 .792156862745098 .819607843137255 .933333333333333 83 3 299 .792156862745
098 .819607843137255 .933333333333333 83 3 295 .792156862745098 .819607843137255
 .933333333333333 83 3 292 .792156862745098 .819607843137255 .933333333333333 83
 3 289 .792156862745098 .819607843137255 .933333333333333 83 3 286 .792156862745
098 .819607843137255 .933333333333333 83 3 283 .792156862745098 .819607843137255
 .933333333333333 83 3 280 .792156862745098 .819607843137255 .933333333333333 83
 3 267 .792156862745098 .819607843137255 .933333333333333 79 14 263 SWEntUnchang
ed15 253 216 0 54 249 0 17 54 0 253 211 166 52 300 145 0 163 +17 211 0 253 210 5
4 98 163 161 0 208 -17 166 0 253 54 210 49 301 164 0 300 +17 300 0 182 187 214 4
9 54 145 0 0 -17 163 0 212 57 208 52 211 161 0 214 +17 214 0 182 300 216 52 57 1
47 0 0 -17 187 0 182 186 300 46 51 143 0 0 -17 51 0 250 301 169 49 187 143 0 166
 +15 250 218 0 51 246 0 17 301 0 250 197 51 95 166 164 0 210 -17 169 0 250 51 19
7 46 195 167 0 187 +17 197 0 250 169 301 92 97 198 0 0 -17 97 0 24 100 94 95 197
 198 0 301 +17 210 0 253 166 211 95 100 201 0 0 -17 39 0 80 81 19 37 36 135 0 17
5 +17 19 0 80 39 77 34 219 9 0 134 +82 1 239 1168375918 82 1 236 1168638062 82 1
 227 1165754478 17 25 0 24 82 21 72 220 154 0 219 +16 154 4 0 ?25 83 75 302 0 0
 1 16 83 7 0 ?82 181 154 303 0 0 1 30 302 5 0 154 0 303 0 +-.577158016036993 .05
 -.569147882231405 1057355261547768e-31 0 1 30 303 8 0 83 302 204 0 +-.577158016
036993 .05 .480852117768595 -1 0 0 30 204 11 0 181 303 203 0 +-.777158016036993
 .05 .480852117768595 0 0 1 16 181 10 0 ?88 199 83 204 0 0 1 17 88 0 24 91 82 84
 177 181 0 180 +17 91 0 24 94 88 89 191 199 0 189 +17 82 0 24 88 25 78 77 83 0 8
1 +17 180 0 176 177 42 84 174 173 0 191 -17 191 0 188 174 189 84 91 199 0 0 -19
 13 255 0 1 0 8 4 S0 74 4 CI16 index_map_offset0 0 1 dCCZ20 11 2 0 0 260 269 0 0
 0 0 0 0 0 0 0 0 0 0 0 0 0 0 0 0 1 0 
