**ABCDEFGHIJKLMNOPQRSTUVWXYZabcdefghijklmnopqrstuvwxyz**************************
**PARASOLID !"#$%&'()*+,-./:;<=>?@[\]^_`{|}~0123456789**************************
**PART1;
MC=AMD64;
MC_MODEL=Intel64 Family 6 Model 78 Stepping 3, GenuineIntel;
MC_ID=unknown;
OS=Windows_NT;
OS_RELEASE=unknown;
FRU=Parasolid Version 28.0, build 191,  8-24-2015;
APPL=SOLIDWORKS 2016-2015334;
SITE=;
USER=unknown;
FORMAT=text;
GUISE=transmit;
KEY=U_SHAPEAssem1;
FILE=U_SHAPEAssem1.x_t;
DATE=Sun Dec 31 06:34:47 2017;
**PART2;
SCH=SCH_2800191_28002;
USFLD_SIZE=0;
**PART3;
**END_OF_HEADER*****************************************************************
T51 : TRANSMIT FILE created by modeller version 280019123 SCH_2800191_28002_1300
6200 0 10 255 1 5 2 3 0 0 0 0 0 1e3 1e-8 0 0 0 1 0 1 4 81 255 1 2 5 5 1 0 0 0 0
 0 70 11 CI9 list_type0 0 1 uI10 notransmit0 0 1 lCCCDCCDI12 finger_index0 0 1 d
I12 finger_block1012 0 CZ3 0 4 T1 0 0 1 20 1 6 6 11 255 4 3 0 1 7 8 1 9 0 9 0 12
 30 CCCCCCCCCCCCCDI5 owner1040 0 CCCCCCCCCA13 boundary_mesh1006 0 A16 index_map_
offset0 0 1 dA9 index_map82 0 A17 node_id_index_map82 0 A20 schema_embedding_map
82 0 A5 child12 0 A14 lowest_node_id0 0 1 dZ7 391 10 11 0 0 0 0 1e3 1e-8 4 12 0
 1 0 1 1 13 14 15 16 17 18 19 0 0 0 0 0 0 0 100 255 8 4 4 0 0 -36283186352096e-3
1 -3678885743519345e-32 -1 1942890293094025e-31 -1 582872851513663e-32 -1 -15265
5665885959e-30 377993456468606e-31 .0257037756551327 .0209002976608332 .04196224
35375468 1 3 ?11 9 1 0 1 7 20 1 0 4 0 4 100 20 2 9 0 0 1 0 0 0 1 0 0 0 1 .037461
5609403193 .0209002976608332 .0537200288227334 1 1 ?81 1 10 357 5 7 0 0 21 0 22
 70 11 0 4 T7 0 0 3 20 1 23 23 13 255 13 282 0 7 0 24 0 0 25 0 50 255 14 265 0 2
4 26 0 0 +0 0 0 0 0 -1 -1 0 0 30 255 15 240 0 27 28 0 0 --.0417577852851866 .035
 0 0 1 0 29 255 16 223 0 29 30 0 -.0417577852851866 0 0 19 8 CCCCCCCA5 owner12 0
 Z17 283 0 7 25 0 31 V0 16 255 18 37 0 ?32 0 33 34 0 0 7 18 255 19 33 0 35 0 36
 37 ?7 17 255 35 0 38 32 39 19 40 41 0 42 -18 36 29 0 43 19 44 45 ?7 29 37 54 0
 19 0 45 -.0517577852851866 .035 .01 29 45 57 0 36 37 46 -.0517577852851866 -.01
 .01 29 46 60 0 44 45 47 .0182422147148134 -.01 .01 18 44 25 0 48 36 49 46 ?7 29
 47 63 0 49 46 50 .0182422147148134 .035 .01 18 49 21 0 51 44 52 47 ?7 29 50 66
 0 52 47 53 .00824221471481338 .035 .01 18 52 17 0 54 49 55 50 ?7 29 53 69 0 55
 50 56 .00824221471481339 0 .01 18 55 13 0 57 52 58 53 ?7 29 56 72 0 59 53 60 -.
0417577852851866 .035 .01 18 59 7 0 61 58 62 56 ?7 29 60 73 0 58 56 63 -.0417577
852851866 0 .01 18 58 9 0 64 55 59 60 ?7 29 63 97 0 62 60 65 -.0517577852851866
 .035 0 18 62 85 0 66 59 67 63 ?7 29 65 95 0 67 63 68 -.0417577852851866 .035 0
 18 67 88 0 69 62 70 65 ?7 29 68 118 0 70 65 71 -.0517577852851866 -.01 0 18 70
 106 0 72 67 73 68 ?7 29 71 139 0 73 68 74 .0182422147148134 -.01 0 18 73 127 0
 75 70 76 71 ?7 29 74 160 0 76 71 77 .0182422147148134 .035 0 18 76 148 0 78 73
 79 74 ?7 29 77 181 0 79 74 30 .00824221471481338 .035 0 18 79 169 0 80 76 81 77
 ?7 29 30 202 0 81 77 16 .00824221471481339 0 0 18 81 190 0 82 79 29 30 ?7 17 82
 0 83 80 84 81 85 86 0 87 +18 29 211 0 84 81 0 16 ?7 17 84 0 83 82 88 29 69 27 0
 85 +15 255 83 248 0 72 24 0 17 88 0 83 84 66 67 39 89 0 0 +17 69 0 90 91 92 67
 84 27 0 93 -16 27 228 0 ?84 94 0 15 0 0 7 17 85 0 95 64 96 29 82 86 0 92 -15 95
 206 0 64 97 0 17 64 0 95 98 85 58 92 94 0 99 -17 96 0 95 85 98 81 57 100 0 0 +1
6 86 207 0 ?82 100 94 101 0 0 7 17 92 0 90 69 102 29 64 94 0 0 +15 90 227 0 91 1
03 0 17 102 0 90 92 91 58 61 104 0 0 +16 94 208 0 ?92 86 27 28 0 0 7 30 28 218 0
 94 101 15 0 +-.0417577852851866 0 .01 0 0 -1 30 101 219 0 86 105 28 0 +-.041757
7852851866 0 0 1 0 0 30 105 197 0 100 106 101 0 -.00824221471481339 0 .01 0 0 1
 16 100 187 0 ?96 107 86 105 0 0 7 30 106 198 0 107 108 105 0 +.0082422147148133
9 0 0 -1982541115402065e-31 1 0 16 107 186 0 ?80 109 100 106 0 0 7 30 108 176 0
 109 110 106 0 +.00824221471481338 .035 .01 0 0 -1 16 109 166 0 ?111 112 107 108
 0 0 7 30 110 177 0 112 113 108 0 +.00824221471481338 .035 0 1 0 0 16 112 165 0
 ?78 114 109 110 0 0 7 30 113 155 0 114 115 110 0 -.0182422147148134 .035 .01 0
 0 1 16 114 145 0 ?116 117 112 113 0 0 7 30 115 156 0 117 118 113 0 +.0182422147
148134 .035 0 308395284618099e-30 -1 0 16 117 144 0 ?75 119 114 115 0 0 7 30 118
 134 0 119 120 115 0 -.0182422147148134 -.01 .01 0 0 1 16 119 124 0 ?121 122 117
 118 0 0 7 30 120 135 0 122 123 118 0 +.0182422147148134 -.01 0 -1 -123908819712
629e-30 0 16 122 123 0 ?72 124 119 120 0 0 7 30 123 113 0 124 125 120 0 --.05175
77852851866 -.01 .01 0 0 1 16 124 103 0 ?126 127 122 123 0 0 7 30 125 114 0 127
 128 123 0 +-.0517577852851866 -.01 0 -308395284618099e-30 1 0 16 127 102 0 ?66
 129 124 125 0 0 7 30 128 90 0 129 130 125 0 --.0417577852851866 .035 .01 0 0 -1
 16 129 84 0 ?91 41 127 128 0 0 7 30 130 92 0 41 131 128 0 +-.0517577852851866 .
035 .01 0 0 -1 16 41 82 0 ?40 89 129 130 0 0 7 30 131 93 0 89 132 130 0 +-.05175
77852851866 .035 0 1 0 0 16 89 81 0 ?88 104 41 131 0 0 7 30 132 71 0 104 133 131
 0 --.0417577852851866 0 .01 0 1 0 16 104 10 0 ?102 134 89 132 0 0 7 30 133 68 0
 134 135 132 0 -0 0 .01 -1 0 0 16 134 14 0 ?98 136 104 133 0 0 7 30 135 65 0 136
 137 133 0 +.00824221471481339 0 .01 0 1 0 16 136 18 0 ?138 139 134 135 0 0 7 30
 137 62 0 139 140 135 0 -0 .035 .01 -1 0 0 16 139 22 0 ?141 142 136 137 0 0 7 30
 140 59 0 142 143 137 0 -.0182422147148134 0 .01 0 1 0 16 142 26 0 ?144 145 139
 140 0 0 7 30 143 56 0 145 146 140 0 +0 -.01 .01 -1 0 0 16 145 30 0 ?147 33 142
 143 0 0 7 30 146 53 0 33 34 143 0 +-.0517577852851866 0 .01 0 1 0 16 33 34 0 ?1
48 18 145 146 0 0 7 30 34 51 0 18 0 146 0 -0 .035 .01 -1 0 0 17 148 0 149 40 43
 19 150 33 0 0 +15 149 101 0 43 151 0 17 40 0 149 152 148 62 35 41 0 0 +17 43 0
 149 148 152 36 126 124 0 150 -17 150 0 153 154 42 36 148 33 0 147 -15 153 8 0 1
50 155 0 17 154 0 153 156 150 44 147 145 0 144 -17 42 0 153 150 61 19 32 18 0 14
8 -17 147 0 157 126 48 36 154 145 0 0 +15 157 122 0 48 158 0 17 126 0 157 159 14
7 70 43 124 0 0 +17 48 0 157 147 159 44 121 119 0 154 -17 159 0 157 48 126 73 72
 122 0 121 -17 121 0 160 161 144 73 48 119 0 0 +15 160 143 0 51 162 0 17 161 0 1
60 51 121 76 75 117 0 116 -17 144 0 160 121 51 44 156 142 0 0 +17 51 0 160 144 1
61 49 116 114 0 156 -17 156 0 153 163 154 49 144 142 0 141 -17 163 0 153 164 156
 52 141 139 0 138 -17 141 0 165 116 54 49 163 139 0 0 +15 165 164 0 54 166 0 17
 116 0 165 167 141 76 51 114 0 0 +17 54 0 165 141 167 52 111 109 0 163 -17 167 0
 165 54 116 79 78 112 0 111 -17 111 0 168 87 138 79 54 109 0 0 +15 168 185 0 57
 169 0 17 87 0 168 57 111 81 80 107 0 96 -17 138 0 168 111 57 52 164 136 0 0 +17
 57 0 168 138 87 55 96 100 0 164 -17 164 0 153 99 163 55 138 136 0 98 -17 99 0 1
53 61 164 58 98 134 0 102 -17 98 0 95 96 64 55 99 134 0 0 +17 61 0 153 42 99 59
 102 104 0 91 -17 91 0 90 102 69 59 93 129 0 32 +17 93 0 38 39 32 67 91 129 0 88
 -17 32 0 38 93 35 59 42 18 0 0 +15 38 80 0 35 170 0 14 255 170 78 171 1e-8 155
 151 38 13 172 -0 0 151 155 31 81 1 171 372 173 170 174 0 0 175 176 14 155 2 175
 1e-8 0 170 153 13 177 -0 0 170 0 31 14 151 99 178 1e-8 170 158 149 13 179 -0 0
 158 170 31 50 172 89 0 170 177 179 0 +-.0517577852851866 .035 .01 0 -1 0 0 0 -1
 13 31 3 0 0 0 0 0 0 17 155 50 177 6 0 155 0 172 0 +0 0 .01 0 0 -1 -1 0 0 50 179
 110 0 151 172 180 0 +-.0517577852851866 -.01 .01 1 308395284618099e-30 0 -30839
5284618099e-30 1 0 50 180 131 0 158 179 181 0 +.0182422147148134 -.01 .01 -12390
8819712629e-30 1 0 -1 -123908819712629e-30 0 14 158 120 182 1e-8 151 162 157 13
 180 -0 0 162 151 31 50 181 152 0 162 180 183 0 +.0182422147148134 .035 .01 -1 -
308395284618099e-30 0 308395284618099e-30 -1 0 14 162 141 184 1e-8 158 166 160 1
3 181 -0 0 166 158 31 50 183 173 0 166 181 185 0 +.00824221471481338 .035 .01 0
 -1 0 0 0 -1 14 166 162 186 1e-8 162 169 165 13 183 -0 0 169 162 31 50 185 194 0
 169 183 187 0 +.00824221471481339 0 .01 1 1982541115402065e-31 0 -1982541115402
065e-31 1 0 14 169 183 188 1e-8 166 97 168 13 185 -0 0 97 166 31 50 187 215 0 97
 185 26 0 +-.0417577852851866 0 .01 0 -1 0 0 0 -1 14 97 204 189 1e-8 169 103 95
 13 187 -0 0 103 169 31 50 26 236 0 103 187 14 0 +-.0417577852851866 .035 .01 -1
 0 0 0 0 1 14 103 225 190 1e-8 97 24 90 13 26 -0 0 24 97 31 81 1 190 388 173 103
 191 0 189 192 193 14 24 246 192 1e-8 103 0 83 13 14 +0 0 0 103 31 81 1 192 390
 173 24 194 0 190 0 195 80 255 1 173 196 197 9000 1 1 1 1 1 1 1 1 0 FFFFTFTFFFFF
FF1 81 1 194 358 198 24 21 192 0 191 199 82 255 1 195 999999 80 1 198 0 200 8001
 0 0 0 0 3 5 0 0 0 FFFFTFTFFFFFFF2 81 1 21 344 5 24 0 194 0 10 201 81 1 191 359
 198 103 0 190 194 202 203 83 255 3 199 .792156862745098 .819607843137255 .93333
3333333333 81 1 202 360 198 97 0 189 191 204 205 83 3 203 .792156862745098 .8196
07843137255 .933333333333333 81 1 189 386 173 97 202 0 188 190 206 81 1 204 361
 198 169 0 188 202 207 208 83 3 205 .792156862745098 .819607843137255 .933333333
333333 81 1 188 384 173 169 204 0 186 189 209 81 1 207 362 198 166 0 186 204 210
 211 83 3 208 .792156862745098 .819607843137255 .933333333333333 81 1 186 382 17
3 166 207 0 184 188 212 81 1 210 363 198 162 0 184 207 213 214 83 3 211 .7921568
62745098 .819607843137255 .933333333333333 81 1 184 380 173 162 210 0 182 186 21
5 81 1 213 364 198 158 0 182 210 216 217 83 3 214 .792156862745098 .819607843137
255 .933333333333333 81 1 182 378 173 158 213 0 178 184 218 81 1 216 365 198 151
 0 178 213 174 219 83 3 217 .792156862745098 .819607843137255 .933333333333333 8
1 1 178 376 173 151 216 0 175 182 220 81 1 174 366 198 170 0 171 216 221 222 83
 3 219 .792156862745098 .819607843137255 .933333333333333 81 1 221 367 198 155 0
 175 174 0 223 83 3 222 .792156862745098 .819607843137255 .933333333333333 81 1
 175 374 173 155 221 0 171 178 224 83 3 223 .792156862745098 .819607843137255 .9
33333333333333 82 1 224 999999 82 1 220 999999 82 1 218 999999 82 1 215 999999 8
2 1 212 999999 82 1 209 999999 82 1 206 999999 80 1 5 225 226 8017 0 0 0 0 0 0 0
 0 0 TTTTTTTTTTTTTF3 84 255 4 201 NONE79 255 13 226 SDL/TYSA_NAME79 15 200 SDL/T
YSA_COLOUR79 14 197 SWEntUnchanged82 1 193 999999 82 1 176 999999 17 39 0 38 35
 93 62 88 89 0 40 -17 80 0 83 78 82 79 87 107 0 167 +17 78 0 83 75 80 76 167 112
 0 161 +17 75 0 83 72 78 73 161 117 0 159 +17 72 0 83 66 75 70 159 122 0 152 +17
 66 0 83 88 72 62 152 127 0 39 +17 152 0 149 43 40 70 66 127 0 126 -19 25 5 0 7
 0 17 13 S0 74 4 CI16 index_map_offset0 0 1 dCCZ20 23 3 0 0 192 10 221 0 0 0 0 0
 0 0 0 0 0 0 0 0 0 0 0 0 84 7 22 u_shape74 20 6 1 0 0 2 0 0 0 0 0 0 0 0 0 0 0 0
 0 0 0 0 0 0 0 1 0 
