**ABCDEFGHIJKLMNOPQRSTUVWXYZabcdefghijklmnopqrstuvwxyz**************************
**PARASOLID !"#$%&'()*+,-./:;<=>?@[\]^_`{|}~0123456789**************************
**PART1;
MC=AMD64;
MC_MODEL=Intel64 Family 6 Model 78 Stepping 3, GenuineIntel;
MC_ID=unknown;
OS=Windows_NT;
OS_RELEASE=unknown;
FRU=Parasolid Version 28.0, build 191,  8-24-2015;
APPL=SOLIDWORKS 2016-2015334;
SITE=;
USER=unknown;
FORMAT=text;
GUISE=transmit;
KEY=u_shape;
FILE=u_shape.x_t;
DATE=Sat Dec 30 15:01:32 2017;
**PART2;
SCH=SCH_2800191_28002;
USFLD_SIZE=0;
**PART3;
**END_OF_HEADER*****************************************************************
T51 : TRANSMIT FILE created by modeller version 280019123 SCH_2800191_28002_1300
6200 0 12 30 CCCCCCCCCCCCCDI5 owner1040 0 CCCCCCCCCA13 boundary_mesh1006 0 A16 i
ndex_map_offset0 0 1 dA9 index_map82 0 A17 node_id_index_map82 0 A20 schema_embe
dding_map82 0 A5 child12 0 A14 lowest_node_id0 0 1 dZ1 375 0 2 0 0 0 0 1e3 1e-8
 0 3 0 1 0 1 1 4 5 6 7 8 9 10 0 0 0 0 0 0 0 70 11 CI9 list_type0 0 1 uI10 notran
smit0 0 1 lCCCDCCDI12 finger_index0 0 1 dI12 finger_block1012 0 CZ2 0 4 T1 0 0 2
 20 1 11 11 13 255 4 282 0 1 0 12 0 0 13 0 50 255 5 265 0 12 14 0 0 +0 0 0 0 0 -
1 -1 0 0 30 255 6 240 0 15 16 0 0 --.0417577852851866 .035 0 0 1 0 29 255 7 223
 0 17 18 0 -.0417577852851866 0 0 19 8 CCCCCCCA5 owner12 0 Z8 283 0 1 13 0 19 V0
 16 255 9 37 0 ?20 0 21 22 0 0 1 18 255 10 33 0 23 0 24 25 ?1 17 255 23 0 26 20
 27 10 28 29 0 30 -18 24 29 0 31 10 32 33 ?1 29 25 54 0 10 0 33 -.05175778528518
66 .035 .01 29 33 57 0 24 25 34 -.0517577852851866 -.01 .01 29 34 60 0 32 33 35
 .0182422147148134 -.01 .01 18 32 25 0 36 24 37 34 ?1 29 35 63 0 37 34 38 .01824
22147148134 .035 .01 18 37 21 0 39 32 40 35 ?1 29 38 66 0 40 35 41 .008242214714
81338 .035 .01 18 40 17 0 42 37 43 38 ?1 29 41 69 0 43 38 44 .00824221471481339
 0 .01 18 43 13 0 45 40 46 41 ?1 29 44 72 0 47 41 48 -.0417577852851866 .035 .01
 18 47 7 0 49 46 50 44 ?1 29 48 73 0 46 44 51 -.0417577852851866 0 .01 18 46 9 0
 52 43 47 48 ?1 29 51 97 0 50 48 53 -.0517577852851866 .035 0 18 50 85 0 54 47 5
5 51 ?1 29 53 95 0 55 51 56 -.0417577852851866 .035 0 18 55 88 0 57 50 58 53 ?1
 29 56 118 0 58 53 59 -.0517577852851866 -.01 0 18 58 106 0 60 55 61 56 ?1 29 59
 139 0 61 56 62 .0182422147148134 -.01 0 18 61 127 0 63 58 64 59 ?1 29 62 160 0
 64 59 65 .0182422147148134 .035 0 18 64 148 0 66 61 67 62 ?1 29 65 181 0 67 62
 18 .00824221471481338 .035 0 18 67 169 0 68 64 69 65 ?1 29 18 202 0 69 65 7 .00
824221471481339 0 0 18 69 190 0 70 67 17 18 ?1 17 70 0 71 68 72 69 73 74 0 75 +1
8 17 211 0 72 69 0 7 ?1 17 72 0 71 70 76 17 57 15 0 73 +15 255 71 248 0 60 12 0
 17 76 0 71 72 54 55 27 77 0 0 +17 57 0 78 79 80 55 72 15 0 81 -16 15 228 0 ?72
 82 0 6 0 0 1 17 73 0 83 52 84 17 70 74 0 80 -15 83 206 0 52 85 0 17 52 0 83 86
 73 46 80 82 0 87 -17 84 0 83 73 86 69 45 88 0 0 +16 74 207 0 ?70 88 82 89 0 0 1
 17 80 0 78 57 90 17 52 82 0 0 +15 78 227 0 79 91 0 17 90 0 78 80 79 46 49 92 0
 0 +16 82 208 0 ?80 74 15 16 0 0 1 30 16 218 0 82 89 6 0 +-.0417577852851866 0 .
01 0 0 -1 30 89 219 0 74 93 16 0 +-.0417577852851866 0 0 1 0 0 30 93 197 0 88 94
 89 0 -.00824221471481339 0 .01 0 0 1 16 88 187 0 ?84 95 74 93 0 0 1 30 94 198 0
 95 96 93 0 +.00824221471481339 0 0 -1982541115402065e-31 1 0 16 95 186 0 ?68 97
 88 94 0 0 1 30 96 176 0 97 98 94 0 +.00824221471481338 .035 .01 0 0 -1 16 97 16
6 0 ?99 100 95 96 0 0 1 30 98 177 0 100 101 96 0 +.00824221471481338 .035 0 1 0
 0 16 100 165 0 ?66 102 97 98 0 0 1 30 101 155 0 102 103 98 0 -.0182422147148134
 .035 .01 0 0 1 16 102 145 0 ?104 105 100 101 0 0 1 30 103 156 0 105 106 101 0 +
.0182422147148134 .035 0 308395284618099e-30 -1 0 16 105 144 0 ?63 107 102 103 0
 0 1 30 106 134 0 107 108 103 0 -.0182422147148134 -.01 .01 0 0 1 16 107 124 0 ?
109 110 105 106 0 0 1 30 108 135 0 110 111 106 0 +.0182422147148134 -.01 0 -1 -1
23908819712629e-30 0 16 110 123 0 ?60 112 107 108 0 0 1 30 111 113 0 112 113 108
 0 --.0517577852851866 -.01 .01 0 0 1 16 112 103 0 ?114 115 110 111 0 0 1 30 113
 114 0 115 116 111 0 +-.0517577852851866 -.01 0 -308395284618099e-30 1 0 16 115
 102 0 ?54 117 112 113 0 0 1 30 116 90 0 117 118 113 0 --.0417577852851866 .035
 .01 0 0 -1 16 117 84 0 ?79 29 115 116 0 0 1 30 118 92 0 29 119 116 0 +-.0517577
852851866 .035 .01 0 0 -1 16 29 82 0 ?28 77 117 118 0 0 1 30 119 93 0 77 120 118
 0 +-.0517577852851866 .035 0 1 0 0 16 77 81 0 ?76 92 29 119 0 0 1 30 120 71 0 9
2 121 119 0 --.0417577852851866 0 .01 0 1 0 16 92 10 0 ?90 122 77 120 0 0 1 30 1
21 68 0 122 123 120 0 -0 0 .01 -1 0 0 16 122 14 0 ?86 124 92 121 0 0 1 30 123 65
 0 124 125 121 0 +.00824221471481339 0 .01 0 1 0 16 124 18 0 ?126 127 122 123 0
 0 1 30 125 62 0 127 128 123 0 -0 .035 .01 -1 0 0 16 127 22 0 ?129 130 124 125 0
 0 1 30 128 59 0 130 131 125 0 -.0182422147148134 0 .01 0 1 0 16 130 26 0 ?132 1
33 127 128 0 0 1 30 131 56 0 133 134 128 0 +0 -.01 .01 -1 0 0 16 133 30 0 ?135 2
1 130 131 0 0 1 30 134 53 0 21 22 131 0 +-.0517577852851866 0 .01 0 1 0 16 21 34
 0 ?136 9 133 134 0 0 1 30 22 51 0 9 0 134 0 -0 .035 .01 -1 0 0 17 136 0 137 28
 31 10 138 21 0 0 +15 137 101 0 31 139 0 17 28 0 137 140 136 50 23 29 0 0 +17 31
 0 137 136 140 24 114 112 0 138 -17 138 0 141 142 30 24 136 21 0 135 -15 141 8 0
 138 143 0 17 142 0 141 144 138 32 135 133 0 132 -17 30 0 141 138 49 10 20 9 0 1
36 -17 135 0 145 114 36 24 142 133 0 0 +15 145 122 0 36 146 0 17 114 0 145 147 1
35 58 31 112 0 0 +17 36 0 145 135 147 32 109 107 0 142 -17 147 0 145 36 114 61 6
0 110 0 109 -17 109 0 148 149 132 61 36 107 0 0 +15 148 143 0 39 150 0 17 149 0
 148 39 109 64 63 105 0 104 -17 132 0 148 109 39 32 144 130 0 0 +17 39 0 148 132
 149 37 104 102 0 144 -17 144 0 141 151 142 37 132 130 0 129 -17 151 0 141 152 1
44 40 129 127 0 126 -17 129 0 153 104 42 37 151 127 0 0 +15 153 164 0 42 154 0 1
7 104 0 153 155 129 64 39 102 0 0 +17 42 0 153 129 155 40 99 97 0 151 -17 155 0
 153 42 104 67 66 100 0 99 -17 99 0 156 75 126 67 42 97 0 0 +15 156 185 0 45 157
 0 17 75 0 156 45 99 69 68 95 0 84 -17 126 0 156 99 45 40 152 124 0 0 +17 45 0 1
56 126 75 43 84 88 0 152 -17 152 0 141 87 151 43 126 124 0 86 -17 87 0 141 49 15
2 46 86 122 0 90 -17 86 0 83 84 52 43 87 122 0 0 +17 49 0 141 30 87 47 90 92 0 7
9 -17 79 0 78 90 57 47 81 117 0 20 +17 81 0 26 27 20 55 79 117 0 76 -17 20 0 26
 81 23 47 30 9 0 0 +15 26 80 0 23 158 0 14 255 158 78 159 1e-8 143 139 26 4 160
 -0 0 139 143 19 81 255 1 159 366 161 158 162 0 0 163 164 14 143 2 163 1e-8 0 15
8 141 4 165 -0 0 158 0 19 14 139 99 166 1e-8 158 146 137 4 167 -0 0 146 158 19 5
0 160 89 0 158 165 167 0 +-.0517577852851866 .035 .01 0 -1 0 0 0 -1 13 19 3 0 0
 0 0 0 0 8 143 50 165 6 0 143 0 160 0 +0 0 .01 0 0 -1 -1 0 0 50 167 110 0 139 16
0 168 0 +-.0517577852851866 -.01 .01 1 308395284618099e-30 0 -308395284618099e-3
0 1 0 50 168 131 0 146 167 169 0 +.0182422147148134 -.01 .01 -123908819712629e-3
0 1 0 -1 -123908819712629e-30 0 14 146 120 170 1e-8 139 150 145 4 168 -0 0 150 1
39 19 50 169 152 0 150 168 171 0 +.0182422147148134 .035 .01 -1 -308395284618099
e-30 0 308395284618099e-30 -1 0 14 150 141 172 1e-8 146 154 148 4 169 -0 0 154 1
46 19 50 171 173 0 154 169 173 0 +.00824221471481338 .035 .01 0 -1 0 0 0 -1 14 1
54 162 174 1e-8 150 157 153 4 171 -0 0 157 150 19 50 173 194 0 157 171 175 0 +.0
0824221471481339 0 .01 1 1982541115402065e-31 0 -1982541115402065e-31 1 0 14 157
 183 176 1e-8 154 85 156 4 173 -0 0 85 154 19 50 175 215 0 85 173 14 0 +-.041757
7852851866 0 .01 0 -1 0 0 0 -1 14 85 204 177 1e-8 157 91 83 4 175 -0 0 91 157 19
 50 14 236 0 91 175 5 0 +-.0417577852851866 .035 .01 -1 0 0 0 0 1 14 91 225 178
 1e-8 85 12 78 4 14 -0 0 12 85 19 81 1 178 374 161 91 179 0 177 180 181 14 12 24
6 180 1e-8 91 0 71 4 5 +0 0 0 91 19 81 1 180 375 161 12 182 0 178 0 183 80 255 1
 161 184 185 9000 1 1 1 1 1 1 1 1 0 FFFFTFTFFFFFFF1 81 1 182 334 186 12 0 180 0
 179 187 82 255 1 183 999999 80 1 186 0 188 8001 0 0 0 0 3 5 0 0 0 FFFFTFTFFFFFF
F2 81 1 179 335 186 91 0 178 182 189 190 83 255 3 187 .792156862745098 .81960784
3137255 .933333333333333 81 1 189 336 186 85 0 177 179 191 192 83 3 190 .7921568
62745098 .819607843137255 .933333333333333 81 1 177 373 161 85 189 0 176 178 193
 81 1 191 337 186 157 0 176 189 194 195 83 3 192 .792156862745098 .8196078431372
55 .933333333333333 81 1 176 372 161 157 191 0 174 177 196 81 1 194 338 186 154
 0 174 191 197 198 83 3 195 .792156862745098 .819607843137255 .933333333333333 8
1 1 174 371 161 154 194 0 172 176 199 81 1 197 339 186 150 0 172 194 200 201 83
 3 198 .792156862745098 .819607843137255 .933333333333333 81 1 172 370 161 150 1
97 0 170 174 202 81 1 200 340 186 146 0 170 197 203 204 83 3 201 .79215686274509
8 .819607843137255 .933333333333333 81 1 170 369 161 146 200 0 166 172 205 81 1
 203 341 186 139 0 166 200 162 206 83 3 204 .792156862745098 .819607843137255 .9
33333333333333 81 1 166 368 161 139 203 0 163 170 207 81 1 162 342 186 158 0 159
 203 208 209 83 3 206 .792156862745098 .819607843137255 .933333333333333 81 1 20
8 343 186 143 0 163 162 0 210 83 3 209 .792156862745098 .819607843137255 .933333
333333333 81 1 163 367 161 143 208 0 159 166 211 83 3 210 .792156862745098 .8196
07843137255 .933333333333333 82 1 211 999999 82 1 207 999999 82 1 205 999999 82
 1 202 999999 82 1 199 999999 82 1 196 999999 82 1 193 999999 79 255 15 188 SDL/
TYSA_COLOUR79 14 185 SWEntUnchanged82 1 181 999999 82 1 164 999999 17 27 0 26 23
 81 50 76 77 0 28 -17 68 0 71 66 70 67 75 95 0 155 +17 66 0 71 63 68 64 155 100
 0 149 +17 63 0 71 60 66 61 149 105 0 147 +17 60 0 71 54 63 58 147 110 0 140 +17
 54 0 71 76 60 50 140 115 0 27 +17 140 0 137 31 28 58 54 115 0 114 -19 13 5 0 1
 0 8 4 S0 74 4 CI16 index_map_offset0 0 1 dCCZ20 11 2 0 0 180 208 0 0 0 0 0 0 0
 0 0 0 0 0 0 0 0 0 0 0 1 0 
